<svg width="121" height="42" viewBox="0 0 121 42" fill="none" xmlns="http://www.w3.org/2000/svg">
<g id="livetype" clip-path="url(#clip0_2143_4213)">
<g id="Group">
<g id="Group_2">
<path id="Vector" d="M111.409 0.811707H10.1406C9.77826 0.811707 9.41587 0.811707 9.04341 0.811707C8.73135 0.811707 8.42936 0.811707 8.1173 0.821773C7.44285 0.821773 6.7684 0.892238 6.10402 1.00297C5.43964 1.1137 4.79539 1.32509 4.1914 1.63715C3.58742 1.94921 3.04383 2.3418 2.56064 2.82499C2.07746 3.29811 1.6748 3.85176 1.37281 4.45574C1.07082 5.05973 0.859422 5.70397 0.748691 6.36836C0.627895 7.03274 0.567496 7.70719 0.567496 8.38164C0.567496 8.69369 0.55743 8.99568 0.547363 9.30774V32.5812C0.547363 32.8933 0.547363 33.1953 0.567496 33.5074C0.567496 34.1818 0.637961 34.8563 0.748691 35.5206C0.859422 36.185 1.07082 36.8393 1.38288 37.4333C1.68487 38.0372 2.08752 38.5808 2.57071 39.0539C3.04383 39.5371 3.59749 39.9297 4.20147 40.2418C4.80545 40.5438 5.4497 40.7652 6.11409 40.876C6.77847 40.9867 7.45292 41.0471 8.12737 41.0572C8.43943 41.0572 8.74142 41.0672 9.05348 41.0672C9.42593 41.0672 9.78833 41.0672 10.1507 41.0672H111.409C111.771 41.0672 112.133 41.0672 112.496 41.0672C112.798 41.0672 113.12 41.0672 113.422 41.0572C114.096 41.0572 114.771 40.9867 115.435 40.876C116.1 40.7652 116.754 40.5438 117.358 40.2418C117.962 39.9398 118.506 39.5371 118.989 39.0539C119.472 38.5808 119.864 38.0272 120.177 37.4333C120.479 36.8293 120.69 36.185 120.801 35.5206C120.911 34.8563 120.972 34.1818 120.992 33.5074C120.992 33.1953 120.992 32.8933 120.992 32.5812C120.992 32.2189 120.992 31.8565 120.992 31.484V10.415C120.992 10.0426 120.992 9.6802 120.992 9.31781C120.992 9.00575 120.992 8.70376 120.992 8.3917C120.982 7.71725 120.921 7.04281 120.801 6.37842C120.69 5.71404 120.479 5.06979 120.177 4.46581C119.552 3.25784 118.566 2.27133 117.358 1.64722C116.754 1.34523 116.11 1.13383 115.435 1.01303C114.771 0.902304 114.096 0.841906 113.422 0.831839C113.12 0.831839 112.798 0.821773 112.496 0.821773C112.133 0.821773 111.771 0.821773 111.409 0.821773V0.811707Z" fill="#A6A6A6"/>
<path id="Vector_2" d="M9.04215 40.2007C8.74015 40.2007 8.43816 40.2007 8.13617 40.1906C7.50199 40.1906 6.87787 40.1302 6.25375 40.0296C5.6699 39.9289 5.11625 39.7477 4.58273 39.4759C4.05927 39.2142 3.58615 38.8619 3.17343 38.4491C2.76071 38.0364 2.40838 37.5633 2.14666 37.0398C1.88493 36.5164 1.69367 35.9527 1.60307 35.3688C1.50241 34.7447 1.44201 34.1105 1.43194 33.4763C1.43194 33.2649 1.42188 32.5603 1.42188 32.5603V9.30692C1.42188 9.30692 1.42187 8.61234 1.43194 8.41101C1.43194 7.77682 1.49234 7.15271 1.60307 6.52859C1.70373 5.94474 1.88493 5.38102 2.14666 4.85757C2.40838 4.33412 2.75064 3.861 3.17343 3.44827C3.58615 3.03555 4.05927 2.68323 4.58273 2.4215C5.10618 2.15977 5.6699 1.96851 6.24368 1.87792C6.8678 1.77725 7.50199 1.71685 8.13617 1.71685H9.04215L112.495 1.70679H113.411C114.035 1.72692 114.659 1.77725 115.283 1.88798C115.867 1.98865 116.431 2.16984 116.964 2.44163C118.011 2.97515 118.857 3.8308 119.4 4.8777C119.662 5.40115 119.843 5.96487 119.944 6.53866C120.044 7.16277 120.105 7.79696 120.115 8.44121C120.115 8.72307 120.115 9.03512 120.115 9.33712C120.115 9.71964 120.115 10.072 120.115 10.4344V31.4731C120.115 31.8355 120.115 32.1979 120.115 32.5603C120.115 32.8925 120.115 33.1844 120.115 33.4965C120.105 34.1206 120.044 34.7447 119.944 35.3587C119.853 35.9426 119.662 36.5063 119.4 37.0398C119.138 37.5532 118.786 38.0263 118.373 38.4391C117.961 38.8518 117.488 39.2041 116.964 39.4658C116.431 39.7376 115.867 39.9188 115.283 40.0195C114.659 40.1202 114.035 40.1806 113.401 40.1806C113.109 40.1806 112.797 40.1906 112.495 40.1906H111.407H9.04215V40.2007Z" fill="black"/>
</g>
<g id="Group_3">
<g id="Group 2">
<g id="Group 3">
<path id="Path" d="M25.4837 21.2452C25.5038 19.5339 26.3997 17.9635 27.8593 17.0676C26.9332 15.7489 25.4434 14.9436 23.8428 14.8933C22.1517 14.7121 20.5109 15.8999 19.6552 15.8999C18.7996 15.8999 17.4507 14.9033 16.0212 14.9335C14.1388 14.9939 12.4376 16.0408 11.5215 17.6816C9.57873 21.0539 11.0283 26.0066 12.8906 28.7345C13.8268 30.0734 14.9139 31.5632 16.3434 31.5028C17.7426 31.4424 18.266 30.617 19.9471 30.617C21.6282 30.617 22.1013 31.5028 23.561 31.4726C25.0609 31.4525 26.0071 30.1338 26.903 28.7849C27.5775 27.8386 28.0909 26.7817 28.4331 25.6744C26.6514 24.9194 25.4937 23.1779 25.4937 21.2452H25.4837Z" fill="white"/>
<path id="Path 2" d="M22.7358 13.1025C23.5512 12.1261 23.9538 10.8577 23.8532 9.58936C22.6049 9.72022 21.4473 10.3141 20.6218 11.2604C19.8065 12.1865 19.3937 13.4045 19.4743 14.6427C20.7426 14.6528 21.9405 14.089 22.7358 13.1025Z" fill="white"/>
</g>
</g>
<g id="Group_4">
<path id="Vector_3" d="M43.1303 28.1322H38.3689L37.2213 31.5145H35.208L39.7178 19.0121H41.8116L46.3213 31.5145H44.2678L43.1202 28.1322H43.1303ZM38.8621 26.5719H42.637L40.7747 21.0858H40.7244L38.8621 26.5719Z" fill="white"/>
<path id="Vector_4" d="M56.0749 26.9554C56.0749 29.7841 54.5549 31.6061 52.2698 31.6061C51.0921 31.6665 49.9747 31.0525 49.4009 30.0156H49.3606V34.5254H47.4883V22.3954H49.3002V23.9154H49.3304C49.9244 22.8886 51.0417 22.2645 52.2296 22.3048C54.5448 22.3048 56.0649 24.1368 56.0649 26.9554H56.0749ZM54.1522 26.9554C54.1522 25.1133 53.1959 23.8952 51.7464 23.8952C50.2968 23.8952 49.3506 25.1334 49.3506 26.9554C49.3506 28.7774 50.3169 30.0257 51.7464 30.0257C53.1758 30.0257 54.1522 28.8177 54.1522 26.9554Z" fill="white"/>
<path id="Vector_5" d="M66.1018 26.9554C66.1018 29.7841 64.5818 31.6061 62.2967 31.6061C61.1189 31.6665 60.0015 31.0525 59.4278 30.0156H59.3875V34.5254H57.5151V22.3954H59.3271V23.9154H59.3573C59.9512 22.8886 61.0686 22.2645 62.2564 22.3048C64.5717 22.3048 66.0917 24.1368 66.0917 26.9554H66.1018ZM64.1791 26.9554C64.1791 25.1133 63.2228 23.8952 61.7732 23.8952C60.3237 23.8952 59.3774 25.1334 59.3774 26.9554C59.3774 28.7774 60.3438 30.0257 61.7732 30.0257C63.2027 30.0257 64.1791 28.8177 64.1791 26.9554Z" fill="white"/>
<path id="Vector_6" d="M72.7363 28.032C72.8773 29.2702 74.0752 30.0856 75.7261 30.0856C77.377 30.0856 78.4339 29.2702 78.4339 28.1528C78.4339 27.1865 77.7494 26.6026 76.1287 26.1999L74.508 25.8074C72.2129 25.2537 71.1459 24.1766 71.1459 22.4351C71.1459 20.2809 73.0283 18.8011 75.6959 18.8011C78.3635 18.8011 80.1452 20.2809 80.2056 22.4351H78.3131C78.2024 21.1869 77.1656 20.4319 75.6657 20.4319C74.1658 20.4319 73.1289 21.1969 73.1289 22.3043C73.1289 23.1901 73.7833 23.7035 75.3939 24.1061L76.773 24.4484C79.3399 25.0524 80.407 26.0892 80.407 27.9112C80.407 30.2466 78.5447 31.7163 75.5851 31.7163C72.8169 31.7163 70.9445 30.2869 70.8237 28.022H72.7363V28.032Z" fill="white"/>
<path id="Vector_7" d="M84.4529 20.2403V22.3945H86.1843V23.8743H84.4529V28.8974C84.4529 29.6826 84.7951 30.045 85.5602 30.045C85.7615 30.045 85.9729 30.0248 86.1742 30.0047V31.4744C85.832 31.5348 85.4797 31.565 85.1374 31.565C83.2952 31.565 82.5705 30.8704 82.5705 29.1088V23.8843H81.2417V22.4046H82.5705V20.2504H84.4529V20.2403Z" fill="white"/>
<path id="Vector_8" d="M87.1914 26.9549C87.1914 24.086 88.8826 22.2841 91.5099 22.2841C94.1372 22.2841 95.8284 24.086 95.8284 26.9549C95.8284 29.8238 94.1574 31.6257 91.5099 31.6257C88.8624 31.6257 87.1914 29.8339 87.1914 26.9549ZM93.9359 26.9549C93.9359 24.992 93.0299 23.8243 91.52 23.8243C90.01 23.8243 89.104 24.992 89.104 26.9549C89.104 28.9179 89.9999 30.0856 91.52 30.0856C93.04 30.0856 93.9359 28.938 93.9359 26.9549Z" fill="white"/>
<path id="Vector_9" d="M97.3779 22.3951H99.1597V23.9454H99.1999C99.4516 22.9488 100.368 22.2643 101.394 22.2945C101.606 22.2945 101.827 22.3146 102.039 22.3649V24.1165C101.767 24.036 101.485 23.9957 101.203 24.0058C100.166 23.9655 99.2805 24.7708 99.2402 25.8177C99.2402 25.9184 99.2402 26.009 99.2503 26.1096V31.5153H97.3779V22.4052V22.3951Z" fill="white"/>
<path id="Vector_10" d="M110.655 28.8373C110.403 30.4882 108.793 31.6257 106.729 31.6257C104.082 31.6257 102.431 29.854 102.431 26.9952C102.431 24.1363 104.082 22.2841 106.648 22.2841C109.215 22.2841 110.756 24.0155 110.756 26.7838V27.428H104.323V27.5388C104.212 28.8474 105.169 29.995 106.477 30.1158C106.578 30.1158 106.679 30.1258 106.769 30.1158C107.675 30.1963 108.531 29.6829 108.873 28.8373H110.645H110.655ZM104.333 26.1194H108.893C108.964 24.9114 108.038 23.8746 106.83 23.8142C106.769 23.8142 106.719 23.8142 106.659 23.8142C105.38 23.8142 104.343 24.8309 104.333 26.1093C104.333 26.1093 104.333 26.1194 104.333 26.1295V26.1194Z" fill="white"/>
</g>
</g>
</g>
<g id="Group 4">
<g id="Group_5">
<path id="Vector_11" d="M38.628 9.60241C40.0876 9.50175 41.366 10.599 41.4667 12.0586C41.4768 12.2297 41.4667 12.4109 41.4566 12.5821C41.4566 14.5047 40.4198 15.602 38.628 15.602H36.4536V9.59235H38.628V9.60241ZM37.3898 14.7564H38.5172C39.5541 14.8168 40.45 14.0216 40.5104 12.9847C40.5104 12.8539 40.5104 12.723 40.4902 12.5921C40.6312 11.5553 39.9064 10.599 38.8696 10.4581C38.7488 10.4379 38.628 10.4379 38.5072 10.448H37.3797V14.7564H37.3898Z" fill="white"/>
<path id="Vector_12" d="M42.5032 13.3361C42.3925 12.1583 43.2582 11.1114 44.4359 10.9906C45.6137 10.8799 46.6606 11.7456 46.7814 12.9234C46.7915 13.0643 46.7915 13.1952 46.7814 13.3361C46.8921 14.5139 46.0365 15.5708 44.8487 15.6816C43.6709 15.7923 42.6139 14.9366 42.5032 13.7488C42.4931 13.6079 42.4931 13.467 42.5032 13.3361ZM45.8553 13.3361C45.8553 12.3496 45.4124 11.7758 44.6373 11.7758C43.8622 11.7758 43.4192 12.3496 43.4192 13.3361C43.4192 14.3226 43.8521 14.8964 44.6373 14.8964C45.4124 14.8964 45.8553 14.3226 45.8553 13.3361Z" fill="white"/>
<path id="Vector_13" d="M52.4595 15.6109H51.5334L50.5972 12.2688H50.5267L49.5905 15.6109H48.6745L47.4263 11.081H48.3322L49.1476 14.5438H49.2181L50.1543 11.081H51.0099L51.9461 14.5438H52.0166L52.8219 11.081H53.7178L52.4695 15.6109H52.4595Z" fill="white"/>
<path id="Vector_14" d="M54.7534 11.071H55.6191V11.7958H55.6896C55.9211 11.2623 56.4647 10.9402 57.0385 10.9905C57.8539 10.9301 58.5585 11.5341 58.6189 12.3495C58.6189 12.4602 58.6189 12.5709 58.6089 12.6716V15.6009H57.7129V12.8931C57.7129 12.1683 57.4009 11.8059 56.7365 11.8059C56.1627 11.7757 55.6795 12.2186 55.6493 12.7924C55.6493 12.8427 55.6493 12.9031 55.6493 12.9535V15.6009H54.7534V11.071Z" fill="white"/>
<path id="Vector_15" d="M60.0293 9.30963H60.9252V15.6112H60.0293V9.30963Z" fill="white"/>
<path id="Vector_16" d="M62.1731 13.3361C62.0624 12.1583 62.9281 11.1114 64.1059 10.9906C65.2836 10.8799 66.3305 11.7456 66.4513 12.9234C66.4614 13.0643 66.4614 13.1952 66.4513 13.3361C66.5621 14.5139 65.7064 15.5708 64.5186 15.6816C63.3308 15.7923 62.2838 14.9366 62.1731 13.7488C62.1631 13.6079 62.1631 13.467 62.1731 13.3361ZM65.5252 13.3361C65.5252 12.3496 65.0823 11.7758 64.3072 11.7758C63.5321 11.7758 63.0892 12.3496 63.0892 13.3361C63.0892 14.3226 63.522 14.8964 64.3072 14.8964C65.0823 14.8964 65.5252 14.3226 65.5252 13.3361Z" fill="white"/>
<path id="Vector_17" d="M67.3877 14.3225C67.3877 13.5071 67.9917 13.034 69.0688 12.9736L70.2969 12.9031V12.5105C70.2969 12.0273 69.9848 11.7656 69.3708 11.7656C68.8675 11.7656 68.5252 11.9468 68.4245 12.2689H67.5588C67.6494 11.4938 68.3843 10.9905 69.411 10.9905C70.5485 10.9905 71.1928 11.5542 71.1928 12.5105V15.611H70.3271V14.9768H70.2566C69.9647 15.4398 69.4412 15.7116 68.8977 15.6915C68.1427 15.772 67.4682 15.2184 67.3978 14.4735C67.3978 14.4332 67.3978 14.3829 67.3978 14.3325L67.3877 14.3225ZM70.2969 13.9399V13.5574L69.1896 13.6279C68.5655 13.6681 68.2836 13.8795 68.2836 14.2822C68.2836 14.6848 68.6359 14.9264 69.1191 14.9264C69.703 14.9868 70.2264 14.554 70.2868 13.9701C70.2868 13.9601 70.2868 13.95 70.2868 13.9299L70.2969 13.9399Z" fill="white"/>
<path id="Vector_18" d="M72.3696 13.3362C72.3696 11.9068 73.1045 11.0008 74.252 11.0008C74.8258 10.9706 75.3694 11.2826 75.6412 11.796H75.7117V9.30963H76.6076V15.6112H75.7519V14.8965H75.6815C75.3896 15.3998 74.846 15.7119 74.2621 15.6917C73.1045 15.6917 72.3797 14.7858 72.3797 13.3463L72.3696 13.3362ZM73.2957 13.3362C73.2957 14.3026 73.7487 14.8763 74.5037 14.8763C75.2587 14.8763 75.7217 14.2925 75.7217 13.3362C75.7217 12.3799 75.2486 11.796 74.5037 11.796C73.7588 11.796 73.2957 12.3799 73.2957 13.3362Z" fill="white"/>
<path id="Vector_19" d="M80.3035 13.3368C80.1928 12.1591 81.0585 11.1122 82.2362 10.9914C83.414 10.8706 84.4609 11.7463 84.5817 12.9241C84.5918 13.065 84.5918 13.1959 84.5817 13.3368C84.6924 14.5146 83.8368 15.5716 82.649 15.6823C81.4712 15.793 80.4142 14.9374 80.3035 13.7496C80.2934 13.6086 80.2934 13.4677 80.3035 13.3368ZM83.6556 13.3368C83.6556 12.3503 83.2127 11.7765 82.4376 11.7765C81.6624 11.7765 81.2195 12.3503 81.2195 13.3368C81.2195 14.3233 81.6524 14.8971 82.4376 14.8971C83.2127 14.8971 83.6556 14.3233 83.6556 13.3368Z" fill="white"/>
<path id="Vector_20" d="M85.7783 11.071H86.644V11.7958H86.7145C86.946 11.2623 87.4896 10.9402 88.0634 10.9905C88.8788 10.9301 89.5834 11.5341 89.6438 12.3495C89.6438 12.4602 89.6438 12.5709 89.6338 12.6716V15.6009H88.7378V12.8931C88.7378 12.1683 88.4258 11.8059 87.7614 11.8059C87.1876 11.7757 86.7044 12.2186 86.6742 12.7924C86.6742 12.8427 86.6742 12.9031 86.6742 12.9535V15.6009H85.7783V11.071Z" fill="white"/>
<path id="Vector_21" d="M94.688 9.94336V11.0909H95.6745V11.8459H94.688V14.1813C94.688 14.6544 94.8792 14.8658 95.3322 14.8658C95.4429 14.8658 95.5637 14.8658 95.6745 14.8457V15.5906C95.5134 15.6208 95.3523 15.6309 95.1913 15.6409C94.1947 15.6409 93.8021 15.2886 93.8021 14.4128V11.856H93.0874V11.101H93.8021V9.95343H94.698L94.688 9.94336Z" fill="white"/>
<path id="Vector_22" d="M96.8823 9.30963H97.7682V11.8061H97.8386C98.0802 11.2726 98.6339 10.9505 99.2177 10.9907C100.043 10.9505 100.748 11.5746 100.788 12.4C100.788 12.4906 100.788 12.5913 100.778 12.6819V15.6112H99.8821V12.9033C99.8821 12.1786 99.5499 11.8162 98.9157 11.8162C98.3319 11.7658 97.8185 12.1987 97.7782 12.7825C97.7782 12.8429 97.7782 12.9033 97.7782 12.9637V15.6112H96.8823V9.30963Z" fill="white"/>
<path id="Vector_23" d="M106.002 14.3829C105.75 15.2385 104.925 15.7921 104.039 15.6915C102.901 15.7217 101.955 14.8258 101.925 13.6883C101.925 13.5775 101.925 13.4668 101.945 13.3561C101.794 12.2085 102.599 11.1616 103.737 11.0106C103.837 11.0005 103.938 10.9905 104.029 10.9905C105.287 10.9905 106.052 11.8562 106.052 13.2756V13.5876H102.851V13.6379C102.791 14.3023 103.284 14.8761 103.948 14.9365C103.988 14.9365 104.029 14.9365 104.059 14.9365C104.492 14.9868 104.925 14.7754 105.136 14.3829H106.002ZM102.851 12.9232H105.136C105.176 12.3192 104.733 11.7958 104.129 11.7555C104.089 11.7555 104.059 11.7555 104.019 11.7555C103.374 11.7555 102.851 12.2588 102.841 12.9031C102.841 12.9031 102.841 12.9232 102.841 12.9333L102.851 12.9232Z" fill="white"/>
</g>
</g>
</g>
<defs>
<clipPath id="clip0_2143_4213">
<rect width="120.455" height="40.2656" fill="white" transform="translate(0.54541 0.814087)"/>
</clipPath>
</defs>
</svg>
