<svg width="93" height="73" viewBox="0 0 93 73" fill="none" xmlns="http://www.w3.org/2000/svg">
<path fill-rule="evenodd" clip-rule="evenodd" d="M60.2635 52.9011C61.0098 53.4945 62.1725 54.99 63.4226 55.8922C64.5628 56.7171 65.7769 57.0585 66.8802 56.453C67.4481 56.1421 67.9654 55.498 68.3895 54.7217C68.9176 53.7566 69.324 52.5903 69.6345 51.9157C69.8645 51.4158 70.2138 51.0155 70.5682 50.6213C71.0037 50.1356 71.4497 49.6602 71.792 49.0973C72.5489 47.8517 72.9806 46.346 73.6327 45.0293C74.2693 43.7451 75.3881 42.9872 76.3246 42.2578C77.0997 41.6543 77.7666 41.0589 78.1312 40.3396C78.5384 39.5329 78.5733 38.6592 78.5562 37.7712C78.5431 37.1007 78.4905 36.422 78.7176 35.788C78.9391 35.1703 79.4391 34.8391 79.9323 34.4957C80.6488 33.9979 81.3733 33.5 81.8115 32.6913C81.9662 32.4068 82.0517 32.0858 82.1049 31.7505C82.1579 31.4173 82.1673 31.0637 82.2682 30.7549C82.3942 30.3688 82.632 30.0335 82.8587 29.6982C83.1664 29.2431 83.4613 28.7859 83.6189 28.2799C84.0198 26.9917 83.9447 25.6669 84.6135 24.4375C85.2344 23.2976 86.1805 22.7998 87.1756 22.3751C88.3888 21.8549 89.6714 21.4343 90.7296 20.5016C91.166 20.1155 91.5391 19.4897 91.8164 18.7745C92.1855 17.8255 92.4037 16.7202 92.4893 15.9805C92.6749 14.3956 91.8837 13.4568 90.8234 12.6806C90.0506 12.1137 89.0964 11.6728 88.5825 10.9189C88.3827 10.6263 88.3562 10.2545 88.3379 9.87856C88.3134 9.33196 88.3358 8.76914 88.2583 8.28147C87.9729 6.52789 86.9227 3.49214 85.6749 2.22624C85.2589 1.80562 84.7145 1.64918 84.1311 1.68169C83.4808 1.71623 82.7747 2.00881 82.286 2.26483C80.3134 3.29097 78.3467 5.1502 76.154 5.71509C73.8935 6.29826 70.2002 5.35748 68.029 4.61988C66.4524 4.08548 65.0858 3.23815 63.3439 3.39664C62.2503 3.49621 57.6176 4.95109 56.697 5.58303C56.0406 6.03209 55.5186 6.56649 54.9867 7.04806C54.3586 7.61497 53.7192 8.11076 52.6491 8.10467C50.5012 8.09451 48.6728 7.20656 46.9174 6.29828C44.9693 5.29043 43.1009 4.26023 41.07 4.06517C39.7571 3.93918 38.2647 4.74787 36.9014 5.56066C36.3258 5.90406 35.7744 6.23935 35.2716 6.44661C34.9516 6.57869 34.6717 6.69044 34.4333 6.59494C33.7321 6.31453 33.4503 5.54239 33.1347 4.77025C32.6865 3.67299 32.2424 2.53714 31.4219 1.88285C31.0118 1.5557 30.499 1.36672 29.9452 1.25699C29.2992 1.13101 28.5919 1.12086 28.0169 1.01113C27.3627 0.885151 26.7206 0.618963 26.07 0.399512C25.2886 0.139421 24.4967 -0.053644 23.6782 0.0134105C22.9698 0.0723371 22.3286 0.310082 21.6952 0.5783C21.1794 0.795719 20.6698 1.03551 20.1101 1.15539C19.6992 1.24073 19.2755 1.15946 18.8504 1.10459C18.2317 1.02332 17.6127 0.976587 17.0103 1.16149C14.7325 1.85439 13.692 3.06543 12.8976 4.60971C12.4229 5.53019 12.0451 6.58275 11.5019 7.71861C11.2233 8.29975 10.7837 8.78537 10.3628 9.27711C9.84533 9.88263 9.35168 10.4963 9.06254 11.2156C8.66819 12.195 8.62598 13.2455 8.68185 14.3062C8.73038 15.2267 8.85435 16.1553 8.79869 17.0351C8.773 17.4435 8.63272 17.8194 8.51099 18.2014C8.34501 18.7196 8.20309 19.2479 8.22022 19.8229C8.24856 20.78 8.5114 21.3896 8.79136 22.0032C9.11108 22.7022 9.4414 23.4134 9.1855 25.0532C9.11475 25.5063 8.85049 25.7217 8.61416 25.9757C8.33583 26.2744 8.06606 26.5975 7.87582 27.0567C7.72228 27.4306 7.645 27.8329 7.55549 28.2312C7.49493 28.5014 7.43274 28.7697 7.28022 29.0054C6.93256 29.5438 6.40404 29.9909 5.88327 30.4663C5.25361 31.0393 4.63232 31.6449 4.21125 32.3886C3.9109 32.9189 3.78815 33.5041 3.6754 34.0873C3.59485 34.5059 3.52654 34.9244 3.30388 35.2922C3.10201 35.6275 2.7984 35.8591 2.5164 36.1091C2.09534 36.485 1.70609 36.8893 1.47425 37.4522C1.26892 37.95 1.24242 38.5677 1.29625 39.224C1.35558 39.9454 1.52747 40.7236 1.41206 41.3454C1.1684 42.6621 0.655373 43.9585 0.66985 45.3118C0.682492 46.5107 1.13475 47.6323 1.04014 48.8535C0.843368 51.3955 0.263672 53.7322 0.263672 56.3189C0.263672 56.7192 0.578094 57.0504 0.979378 57.0727C2.28885 57.1418 3.60872 56.8126 4.90718 56.4591C6.05639 56.1441 7.18622 55.8068 8.27608 55.819C9.37554 55.8312 10.2699 56.199 11.0951 56.6928C12.0179 57.2475 12.8592 57.9566 13.7676 58.5804C14.4311 59.0376 15.2661 59.188 15.9631 59.6066C17.3168 60.4194 18.9276 62.0003 19.9455 63.1991C20.3219 63.6421 20.3764 64.2049 20.4006 64.7758C20.4343 65.5622 20.3907 66.3771 20.5599 67.0984C20.6669 67.5536 20.9345 67.962 21.2848 68.3237C21.6642 68.7179 22.1514 69.0532 22.4778 69.3864C22.8887 69.807 23.0857 70.3739 23.3456 70.8941C23.7178 71.6357 24.1806 72.3002 25.0317 72.6781C25.4923 72.8813 27.1032 73.0114 28.721 72.9992C30.3308 72.985 31.9406 72.8326 32.4139 72.6273C32.9654 72.3876 33.4623 71.9426 33.9627 71.524C34.2918 71.2497 34.6117 70.9733 35.0075 70.9225C35.6366 70.8412 36.2589 71.0912 36.8959 71.3289C37.7435 71.6459 38.6074 71.9608 39.491 71.9385C40.508 71.9141 41.1118 71.5829 41.7045 71.1359C42.0104 70.9063 42.3126 70.636 42.7059 70.3759C43.1637 70.0732 43.6753 69.9411 44.1706 69.7643C44.833 69.5266 45.4717 69.2259 46.0212 68.6264C46.9188 67.645 47.2263 66.3628 47.4322 65.0339C47.6011 63.9448 47.6928 62.8232 48.206 61.9068C48.7839 60.8766 49.7106 60.1369 50.6857 59.442C51.785 58.6597 52.9486 57.9363 53.8729 57.0341C54.4777 56.4428 54.8745 55.7337 55.297 55.0347C55.6351 54.4779 55.9901 53.9232 56.5838 53.5026C56.7975 53.3522 57.0765 53.3644 57.3566 53.3685C57.8434 53.3766 58.345 53.4274 58.7752 53.3685C59.0219 53.336 59.4658 53.149 59.8985 52.9987C60.0086 52.96 60.1738 52.9194 60.2635 52.9011ZM1.79254 55.5589C1.88817 53.3096 2.37367 51.2207 2.54801 48.9693C2.64609 47.7034 2.19526 46.5391 2.18201 45.2955C2.16855 44.0398 2.67301 42.8409 2.89934 41.6197C3.01638 40.9878 2.92217 40.2237 2.84061 39.478C2.7823 38.9456 2.70889 38.4235 2.87323 38.0232C3.05022 37.5944 3.40563 37.3404 3.72759 37.0539C4.05425 36.7633 4.36582 36.4565 4.59929 36.0705C4.91493 35.5483 5.04624 34.9651 5.16063 34.3717C5.2426 33.9471 5.30989 33.5142 5.52848 33.1282C5.87104 32.5226 6.3918 32.0452 6.90401 31.5778C7.5247 31.0129 8.13723 30.4623 8.55136 29.8222C8.80176 29.4341 8.93164 29.0033 9.03114 28.5603C9.1019 28.2454 9.15308 27.9244 9.27461 27.6297C9.42509 27.266 9.67629 27.0547 9.89243 26.819C10.2554 26.4228 10.5692 25.994 10.6799 25.2848C10.9556 23.517 10.6881 22.5864 10.3569 21.8021C10.0984 21.1904 9.75909 20.6967 9.73176 19.7782C9.71994 19.38 9.83697 19.0183 9.95197 18.6586C10.1112 18.1588 10.2744 17.663 10.308 17.1306C10.3673 16.1939 10.2436 15.2064 10.1922 14.227C10.1479 13.3878 10.1538 12.5526 10.4662 11.7764C10.6952 11.2075 11.1044 10.734 11.5141 10.2545C12.0202 9.66319 12.5316 9.06579 12.8666 8.3668C13.4031 7.24719 13.7744 6.20681 14.2429 5.29649C14.8634 4.09154 15.6739 3.14465 17.4528 2.60212C17.8457 2.48223 18.2503 2.54522 18.654 2.59805C19.251 2.67526 19.8472 2.75048 20.4243 2.62856C21.0798 2.49039 21.681 2.22013 22.2851 1.96411C22.7718 1.75888 23.2602 1.56179 23.8044 1.51505C24.4165 1.46425 25.0044 1.63291 25.5888 1.82798C26.3037 2.06775 27.0126 2.35223 27.7316 2.4904C28.2208 2.58387 28.8035 2.60825 29.3657 2.68749C29.7764 2.74642 30.1801 2.8236 30.4772 3.05931C30.8267 3.33769 31.055 3.7563 31.2624 4.20739C31.5218 4.76821 31.7363 5.3839 31.9942 5.94269C32.4238 6.87129 32.9874 7.64137 33.8716 7.9929C34.259 8.14936 34.6972 8.16766 35.1759 8.05793C35.7083 7.93805 36.3115 7.64747 36.9473 7.28375C37.6373 6.88955 38.3768 6.41004 39.1174 6.04632C39.7359 5.74356 40.3476 5.50986 40.925 5.56472C42.7699 5.7415 44.4509 6.7209 46.2206 7.63731C48.183 8.65125 50.2404 9.60017 52.6414 9.61236C53.9333 9.61846 54.8064 9.1552 55.587 8.52123C56.2258 8.00308 56.7888 7.34877 57.5544 6.82452C58.3743 6.26167 62.5071 4.98561 63.4809 4.89824C64.1787 4.83525 64.7975 4.98968 65.4011 5.2071C66.1098 5.46109 66.7994 5.79436 67.5408 6.04632C69.9408 6.86317 74.0342 7.82018 76.533 7.17402C78.832 6.58068 80.9184 4.67678 82.9866 3.59984C83.2684 3.45354 83.6507 3.27469 84.0314 3.20764C84.2375 3.17106 84.4516 3.13654 84.5966 3.28488C85.6728 4.374 86.519 7.01149 86.7657 8.52326C86.8534 9.06173 86.7943 9.69976 86.8514 10.2951C86.9044 10.8316 87.041 11.3375 87.3306 11.7642C87.9341 12.6542 89.0169 13.2272 89.9283 13.8957C90.5543 14.355 91.0967 14.8711 90.9866 15.8078C90.9111 16.4499 90.7256 17.407 90.4054 18.2299C90.226 18.6952 90.0139 19.1219 89.7285 19.3718C88.7946 20.1928 87.6487 20.5321 86.5782 20.9893C85.2874 21.542 84.0905 22.2369 83.2839 23.7182C82.5661 25.039 82.6049 26.4512 82.1744 27.8329C82.0596 28.2027 81.8282 28.5258 81.6041 28.857C81.2991 29.3081 80.9991 29.7693 80.8297 30.2895C80.722 30.6207 80.6827 30.9865 80.6352 31.3482C80.606 31.5697 80.5817 31.7891 80.4808 31.9761C80.1599 32.5694 79.5928 32.8945 79.0678 33.2603C78.3196 33.7784 77.6294 34.3453 77.2938 35.28C77.0046 36.0867 77.0277 36.9462 77.044 37.8017C77.0564 38.4417 77.0746 39.0798 76.7805 39.6609C76.426 40.3619 75.6568 40.8638 74.8732 41.4734C73.9084 42.2232 72.9078 43.0888 72.2765 44.3628C71.6436 45.6409 71.2335 47.1081 70.4987 48.315C70.2051 48.7986 69.8144 49.2009 69.441 49.6155C68.9865 50.1214 68.5549 50.6477 68.26 51.2878C67.9599 51.938 67.5718 53.0678 67.0617 54.0004C66.7933 54.4922 66.5103 54.9351 66.151 55.1342C65.5532 55.4614 64.9278 55.118 64.31 54.673C62.9905 53.72 61.7667 52.1107 61.0259 51.5865C60.7735 51.4076 60.3889 51.3304 59.9362 51.4219C59.4691 51.5153 58.8617 51.8364 58.5703 51.875C58.1174 51.938 57.5746 51.8445 57.0722 51.8649C56.5694 51.8852 56.0998 51.9969 55.7089 52.2733C54.9322 52.8239 54.4439 53.527 54.002 54.2565C53.6448 54.8478 53.3255 55.4573 52.8141 55.9572C51.944 56.8065 50.8413 57.4791 49.8063 58.2167C48.6473 59.0417 47.5725 59.9479 46.8857 61.1732C46.2879 62.24 46.1344 63.5364 45.9376 64.8043C45.7779 65.8345 45.5995 66.8505 44.9038 67.6105C44.4493 68.1063 43.8857 68.2688 43.3356 68.4578C42.8323 68.6325 42.3326 68.8134 41.8697 69.1202C41.447 69.4006 41.1206 69.6871 40.7919 69.935C40.4322 70.2053 40.07 70.4166 39.4528 70.4328C38.7596 70.4511 38.0905 70.1646 37.4254 69.9167C36.5496 69.5916 35.6802 69.3173 34.8152 69.427C34.2572 69.4981 33.756 69.7725 33.2845 70.1341C32.7917 70.5121 32.3427 71.014 31.8083 71.2456C31.4119 71.4183 30.0569 71.4793 28.7083 71.4915C27.3678 71.5016 26.0276 71.4691 25.6459 71.3005C25.0174 71.0221 24.798 70.4349 24.5326 69.8781C24.2687 69.3234 23.9912 68.7747 23.5599 68.3338C23.281 68.0493 22.8883 67.7608 22.5394 67.4398C22.3161 67.2345 22.0959 67.0253 22.0325 66.755C21.8836 66.1211 21.9411 65.4038 21.9118 64.7109C21.8728 63.8005 21.6999 62.9329 21.1 62.2258C19.989 60.9172 18.2209 59.2022 16.7436 58.3143C16.0734 57.9119 15.2651 57.7799 14.6273 57.341C12.6619 55.9877 10.9529 54.3418 8.29301 54.3113C7.06979 54.2991 5.79723 54.6527 4.50733 55.0062C3.60852 55.2501 2.70012 55.4959 1.79254 55.5589Z" fill="#C9DBFF"/>
</svg>
