<svg xmlns="http://www.w3.org/2000/svg" viewBox="0 0 452.38 367.55"><defs><style>.cls-1{fill:#fff;}</style></defs><title>twitter-icon</title><g id="Layer_2" data-name="Layer 2"><g id="Layer_1-2" data-name="Layer 1"><path class="cls-1" d="M452.38,43.51a193.6,193.6,0,0,1-53.44,14.65A92.26,92.26,0,0,0,439.74,6.9a185.28,185.28,0,0,1-58.81,22.45A92.74,92.74,0,0,0,220.5,92.77a95.83,95.83,0,0,0,2.15,21.14c-77.1-3.76-145.32-40.71-191.15-97a92.75,92.75,0,0,0,28.5,124,91.58,91.58,0,0,1-41.9-11.42v1a93.16,93.16,0,0,0,74.3,91.13,92.76,92.76,0,0,1-24.32,3,82.28,82.28,0,0,1-17.56-1.58c12,36.73,46.12,63.73,86.66,64.6a186.28,186.28,0,0,1-115,39.56A174.25,174.25,0,0,1,0,325.94a261.1,261.1,0,0,0,142.27,41.61c170.66,0,264-141.36,264-263.9,0-4.1-.14-8.06-.34-12A185,185,0,0,0,452.38,43.51Z"/></g></g></svg>